<svg preserveAspectRatio="none" width="100%" height="100%" overflow="visible" style="display: block;" viewBox="0 0 13.1699 11.1699" fill="none" xmlns="http://www.w3.org/2000/svg">
<path id="Union" d="M10.585 0C12.0126 1.28855e-07 13.1699 1.1573 13.1699 2.58496V8.58496C13.1699 10.0126 12.0126 11.1699 10.585 11.1699H2.58496C1.15731 11.1699 1.61066e-08 10.0126 0 8.58496V2.58496C0 1.1573 1.15731 3.22132e-08 2.58496 0H10.585ZM5.76562 8.17578C5.56038 8.41523 5.20232 8.44896 4.95605 8.25195L3.78516 7.31641L1.55176 9.5498C1.81002 9.82625 2.17682 10 2.58496 10H10.585C10.9533 10 11.2873 9.85761 11.5391 9.62695L7.30078 6.38574L5.76562 8.17578ZM2.58496 1.16992C1.80348 1.16992 1.16992 1.80348 1.16992 2.58496V8.27734L3.3291 6.11914L3.41406 6.04883C3.62262 5.90678 3.9048 5.91239 4.1084 6.0752L5.24512 6.98535L6.77246 5.2041L6.85449 5.125C7.06037 4.96266 7.35652 4.95514 7.57227 5.12012L12 8.50586V2.58496C12 1.80348 11.3664 1.16992 10.585 1.16992H2.58496ZM3.42676 1.97949C4.22603 1.97949 4.8739 2.62752 4.87402 3.42676C4.87402 4.2261 4.2261 4.87402 3.42676 4.87402C2.62752 4.8739 1.97949 4.22603 1.97949 3.42676C1.97961 2.62759 2.62759 1.97961 3.42676 1.97949ZM3.42676 2.97949C3.17988 2.97961 2.97961 3.17988 2.97949 3.42676C2.97949 3.67374 3.1798 3.8739 3.42676 3.87402C3.67382 3.87402 3.87402 3.67382 3.87402 3.42676C3.8739 3.1798 3.67374 2.97949 3.42676 2.97949Z" fill="white"/>
</svg>
