<svg width="256" height="256" viewBox="0 0 256 256" fill="none" xmlns="http://www.w3.org/2000/svg">
<g clip-path="url(#clip0_500_4895)">
<rect x="6" y="6" width="244" height="244" rx="58" fill="url(#paint0_linear_500_4895)" stroke="black" stroke-width="12"/>
<rect x="2" y="2" width="252" height="252" rx="62" stroke="white" stroke-width="4"/>
<g filter="url(#filter0_d_500_4895)">
<path d="M47 12H209C204.582 12 201 15.5817 201 20V38C201 46.8366 193.837 54 185 54H71C62.1634 54 54.9999 46.8366 54.9999 38V19.9999C54.9999 15.5817 51.4183 12 47 12Z" fill="url(#paint1_linear_500_4895)"/>
</g>
<mask id="mask0_500_4895" style="mask-type:alpha" maskUnits="userSpaceOnUse" x="51" y="12" width="154" height="42">
<path d="M51 12L205 12C202.791 12 201 13.7909 201 16V38C201 46.8366 193.837 54 185 54H71C62.1634 54 54.9999 46.8366 54.9999 38V15.9999C54.9999 13.7908 53.2091 12 51 12Z" fill="black"/>
</mask>
<g mask="url(#mask0_500_4895)">
<g filter="url(#filter1_f_500_4895)">
<ellipse cx="128" cy="53.5" rx="66" ry="5.5" fill="#315BFF"/>
</g>
<g filter="url(#filter2_f_500_4895)">
<ellipse cx="128" cy="53.5" rx="46" ry="6.5" fill="#4F70EE"/>
</g>
<g filter="url(#filter3_f_500_4895)">
<ellipse cx="128" cy="53.5" rx="72" ry="6.5" fill="#4F70EE" fill-opacity="0.7"/>
</g>
</g>
<path d="M128 53L189 54H67L128 53Z" fill="#6379CF"/>
</g>
<defs>
<filter id="filter0_d_500_4895" x="31" y="6" width="194" height="74" filterUnits="userSpaceOnUse" color-interpolation-filters="sRGB">
<feFlood flood-opacity="0" result="BackgroundImageFix"/>
<feColorMatrix in="SourceAlpha" type="matrix" values="0 0 0 0 0 0 0 0 0 0 0 0 0 0 0 0 0 0 127 0" result="hardAlpha"/>
<feOffset dy="10"/>
<feGaussianBlur stdDeviation="8"/>
<feComposite in2="hardAlpha" operator="out"/>
<feColorMatrix type="matrix" values="0 0 0 0 0.175609 0 0 0 0 0.264871 0 0 0 0 0.612004 0 0 0 1 0"/>
<feBlend mode="normal" in2="BackgroundImageFix" result="effect1_dropShadow_500_4895"/>
<feBlend mode="normal" in="SourceGraphic" in2="effect1_dropShadow_500_4895" result="shape"/>
</filter>
<filter id="filter1_f_500_4895" x="18" y="4" width="220" height="99" filterUnits="userSpaceOnUse" color-interpolation-filters="sRGB">
<feFlood flood-opacity="0" result="BackgroundImageFix"/>
<feBlend mode="normal" in="SourceGraphic" in2="BackgroundImageFix" result="shape"/>
<feGaussianBlur stdDeviation="22" result="effect1_foregroundBlur_500_4895"/>
</filter>
<filter id="filter2_f_500_4895" x="50" y="15" width="156" height="77" filterUnits="userSpaceOnUse" color-interpolation-filters="sRGB">
<feFlood flood-opacity="0" result="BackgroundImageFix"/>
<feBlend mode="normal" in="SourceGraphic" in2="BackgroundImageFix" result="shape"/>
<feGaussianBlur stdDeviation="16" result="effect1_foregroundBlur_500_4895"/>
</filter>
<filter id="filter3_f_500_4895" x="24" y="15" width="208" height="77" filterUnits="userSpaceOnUse" color-interpolation-filters="sRGB">
<feFlood flood-opacity="0" result="BackgroundImageFix"/>
<feBlend mode="normal" in="SourceGraphic" in2="BackgroundImageFix" result="shape"/>
<feGaussianBlur stdDeviation="16" result="effect1_foregroundBlur_500_4895"/>
</filter>
<linearGradient id="paint0_linear_500_4895" x1="128" y1="0" x2="128" y2="256" gradientUnits="userSpaceOnUse">
<stop offset="0.395041" stop-color="#4E67C9"/>
<stop offset="1" stop-color="#161D3B"/>
</linearGradient>
<linearGradient id="paint1_linear_500_4895" x1="128" y1="12" x2="128" y2="54" gradientUnits="userSpaceOnUse">
<stop/>
<stop offset="1" stop-color="#141E46"/>
</linearGradient>
<clipPath id="clip0_500_4895">
<rect width="256" height="256" fill="white"/>
</clipPath>
</defs>
</svg>
