<svg width="14" height="14" viewBox="0 0 14 14" fill="none" xmlns="http://www.w3.org/2000/svg">
<g clip-path="url(#clip0_37_2949)">
<path d="M6.99951 0.749512C8.7252 0.749512 10.289 1.45022 11.4194 2.58057C12.5497 3.7109 13.2494 5.27401 13.2495 6.99951C13.2495 8.72528 12.5499 10.289 11.4194 11.4194C10.289 12.5499 8.72528 13.2495 6.99951 13.2495C5.27401 13.2494 3.7109 12.5497 2.58057 11.4194C1.45022 10.289 0.749512 8.7252 0.749512 6.99951C0.749637 5.27393 1.45024 3.71091 2.58057 2.58057C3.71091 1.45024 5.27393 0.749637 6.99951 0.749512ZM6.99951 1.88623C5.58743 1.88636 4.31023 2.45835 3.38428 3.38428C2.45835 4.31023 1.88636 5.58743 1.88623 6.99951C1.88623 8.41171 2.45833 9.6897 3.38428 10.6157C4.31021 11.5416 5.58752 12.1136 6.99951 12.1138C8.41178 12.1138 9.68968 11.5418 10.6157 10.6157C11.5418 9.68968 12.1138 8.41178 12.1138 6.99951C12.1136 5.58752 11.5416 4.31021 10.6157 3.38428C9.6897 2.45833 8.41171 1.88623 6.99951 1.88623ZM7.14209 5.29541C7.45582 5.2955 7.71045 5.55002 7.71045 5.86377V9.27295H8.13623C8.44993 9.27307 8.70459 9.52758 8.70459 9.84131C8.7044 10.1549 8.44981 10.4095 8.13623 10.4097H6.14795C5.83426 10.4097 5.57978 10.155 5.57959 9.84131C5.57959 9.5275 5.83414 9.27295 6.14795 9.27295H6.57373V6.43213C6.26002 6.43206 6.00543 6.17748 6.00537 5.86377C6.00537 5.55001 6.25999 5.29548 6.57373 5.29541H7.14209ZM7.00049 3.30713C7.39254 3.30736 7.71045 3.62498 7.71045 4.01709C7.71041 4.40917 7.39252 4.72682 7.00049 4.72705C6.60826 4.72705 6.28959 4.40931 6.28955 4.01709C6.28955 3.62484 6.60823 3.30713 7.00049 3.30713Z" fill="white"/>
</g>
<defs>
<clipPath id="clip0_37_2949">
<rect width="14" height="14" fill="white"/>
</clipPath>
</defs>
</svg>
