<svg preserveAspectRatio="none" width="100%" height="100%" overflow="visible" style="display: block;" viewBox="0 0 12.833 12.833" fill="none" xmlns="http://www.w3.org/2000/svg">
<path id="Union" d="M6.41602 0C9.95957 0.000197889 12.8328 2.87246 12.833 6.41602C12.8328 9.95955 9.95955 12.8328 6.41602 12.833C2.87246 12.8328 0.000197892 9.95957 0 6.41602C0.000176165 6.094 0.26095 5.83301 0.583008 5.83301C0.904897 5.83321 1.16584 6.09412 1.16602 6.41602C1.16621 9.31524 3.51679 11.6658 6.41602 11.666C9.31522 11.6658 11.6658 9.31522 11.666 6.41602C11.6658 3.51679 9.31524 1.16621 6.41602 1.16602C4.86208 1.16611 3.46574 1.84177 2.50391 2.91602H3.23438C3.55631 2.91615 3.81719 3.1771 3.81738 3.49902C3.81738 3.82111 3.55643 4.0819 3.23438 4.08203H1.11328C0.791115 4.08203 0.530273 3.82119 0.530273 3.49902V1.37793C0.530405 1.05588 0.791197 0.794922 1.11328 0.794922C1.43525 0.795054 1.69616 1.05596 1.69629 1.37793V2.07324C2.8685 0.800302 4.54793 9.28768e-05 6.41602 0ZM6.41699 2.33301C6.73914 2.33304 7.00098 2.59388 7.00098 2.91602L7 6.17676L9.30273 8.47949C9.53037 8.70731 9.53048 9.07694 9.30273 9.30469C9.07496 9.5322 8.70528 9.53225 8.47754 9.30469L6.00488 6.83105C5.89561 6.72175 5.83408 6.57349 5.83398 6.41895V2.91602C5.83402 2.59403 6.09507 2.33326 6.41699 2.33301Z" fill="white"/>
</svg>
