<svg preserveAspectRatio="none" width="100%" height="100%" overflow="visible" style="display: block;" viewBox="0 0 24 24" fill="none" xmlns="http://www.w3.org/2000/svg">
<path id="Subtract" d="M12 0C18.6274 0 24 5.37258 24 12C24 18.6274 18.6274 24 12 24C5.37258 24 0 18.6274 0 12C0 5.37258 5.37258 0 12 0ZM13.4805 8.41309C13.1876 8.12026 12.7128 8.12022 12.4199 8.41309C12.1271 8.70596 12.1271 9.18074 12.4199 9.47363L14.3145 11.3682H7.88184C7.46772 11.3682 7.13187 11.704 7.13184 12.1182C7.13188 12.5323 7.46772 12.8681 7.88184 12.8682H14.3281L12.4199 14.7764C12.1271 15.0692 12.1272 15.544 12.4199 15.8369C12.7128 16.1298 13.1876 16.1298 13.4805 15.8369L16.6621 12.6553C16.955 12.3624 16.955 11.8876 16.6621 11.5947L13.4805 8.41309Z" fill="white"/>
</svg>
