<svg width="16" height="16" viewBox="0 0 16 16" fill="none" xmlns="http://www.w3.org/2000/svg">
<g transform="translate(1.5632 1.664)">
<path id="Vector" d="M3.92084 4.47542H10.6892C10.7079 4.47532 10.7263 4.47038 10.7425 4.46108C10.7587 4.45178 10.7723 4.43843 10.7818 4.42235L11.5839 3.03217C11.5922 3.0172 11.5967 3.00033 11.5967 2.98316C11.5967 2.966 11.5922 2.94912 11.5839 2.93415L10.7823 1.54452C10.773 1.52814 10.7594 1.51454 10.743 1.50513C10.7267 1.49571 10.7081 1.4908 10.6892 1.4909H7.30556L6.47157 0.0487419C6.46296 0.033834 6.45056 0.021471 6.43562 0.01291C6.42069 0.00434906 6.40375 -0.000104617 6.38654 1.86554e-06H4.77758C4.7604 5.89203e-05 4.74353 0.00458173 4.72862 0.0131265C4.71371 0.0216713 4.70129 0.0339445 4.69255 0.0487419L3.03106 2.92603C3.02109 2.94342 3.01584 2.96311 3.01584 2.98316C3.01584 3.00321 3.02109 3.02291 3.03106 3.0403L3.82823 4.42235C3.84719 4.45484 3.88239 4.47542 3.9203 4.47542H3.92084ZM2.50629 3.7297H0.901123C0.883942 3.72975 0.867071 3.73428 0.852165 3.74282C0.837259 3.75136 0.824831 3.76364 0.816099 3.77844L0.0140553 5.16861C0.00484386 5.18478 0 5.20307 0 5.22168C0 5.24029 0.00484386 5.25858 0.0140553 5.27475L1.70804 8.19536L0.872421 9.64836C0.864024 9.66333 0.859615 9.6802 0.859615 9.69737C0.859615 9.71453 0.864024 9.73141 0.872421 9.74638L1.67717 11.1409C1.6945 11.1707 1.727 11.1896 1.7622 11.1896H5.08518C5.12634 11.1896 5.16371 11.168 5.18429 11.1322L5.98146 9.75125C5.99087 9.73495 5.99582 9.71646 5.99582 9.69764C5.99582 9.67882 5.99087 9.66032 5.98146 9.64402L2.59782 3.78277C2.58845 3.76665 2.57502 3.75327 2.55886 3.74395C2.54271 3.73464 2.5244 3.72973 2.50575 3.7297H2.50629ZM11.1159 5.22222H9.52052C9.50191 5.22241 9.48366 5.2274 9.46754 5.23669C9.45141 5.24599 9.43795 5.25928 9.42846 5.2753L6.04374 11.1366C6.03443 11.1528 6.02953 11.1712 6.02953 11.1899C6.02953 11.2086 6.03443 11.227 6.04374 11.2432L6.84632 12.6329C6.85486 12.6479 6.86723 12.6604 6.88217 12.669C6.89711 12.6777 6.91408 12.6822 6.93135 12.6822H8.53598C8.55459 12.682 8.57284 12.677 8.58896 12.6677C8.60509 12.6584 8.61855 12.6451 8.62804 12.6291L10.3204 9.69872H11.9862C12.0034 9.69866 12.0203 9.69414 12.0352 9.6856C12.0501 9.67705 12.0625 9.66478 12.0713 9.64998L12.876 8.25548C12.8844 8.24052 12.8889 8.22364 12.8889 8.20646C12.8889 8.18929 12.8844 8.17241 12.876 8.15745L11.214 5.28017C11.2039 5.26276 11.1895 5.2483 11.1721 5.23823C11.1547 5.22815 11.135 5.22282 11.1149 5.22276L11.1159 5.22222Z" fill="white"/>
</g>
</svg>
