<svg width="14" height="14" viewBox="0 0 14 14" fill="none" xmlns="http://www.w3.org/2000/svg">
<path d="M8.75 12C9.07204 12 9.33283 12.261 9.33301 12.583C9.33301 12.9052 9.07215 13.167 8.75 13.167H5.25C4.92783 13.167 4.66699 12.9052 4.66699 12.583C4.66717 12.261 4.92794 12 5.25 12H8.75ZM7.24023 0.588867C9.70565 0.71405 11.6658 2.75352 11.666 5.25L11.6602 5.49023C11.5776 7.11531 10.6623 8.51782 9.33398 9.28711V10.208L9.3291 10.2979C9.28726 10.7096 8.95961 11.0373 8.54785 11.0791L8.45898 11.083H5.54199L5.45215 11.0791C5.01109 11.0341 4.66699 10.6609 4.66699 10.208V9.28711C3.338 8.51814 2.4214 7.11568 2.33887 5.49023L2.33301 5.25C2.33321 2.67296 4.42296 0.583206 7 0.583008L7.24023 0.588867ZM7 1.75C5.06729 1.7502 3.5002 3.31729 3.5 5.25C3.50014 6.77339 4.47426 8.06898 5.83301 8.5498V8.75H5.83398V9.91699H8.16699V9.76758L8.16602 9.76855V8.5498C9.5254 8.06928 10.4999 6.77378 10.5 5.25C10.4998 3.31728 8.93272 1.75018 7 1.75Z" fill="white"/>
</svg>
