<svg width="16" height="16" viewBox="0 0 16 16" fill="none" xmlns="http://www.w3.org/2000/svg">
<g transform="translate(0.944 2.3744)">
<path id="Subtract" d="M10.4777 0.00237629C10.5909 0.0197381 10.6253 0.121363 10.6593 0.222103L10.6613 0.226009C10.7148 0.394316 10.7437 0.566628 10.8507 0.72015C11.0042 0.935348 11.2251 1.0344 11.4445 1.13324L11.4474 1.13519C11.8678 1.32675 12.1443 1.62389 12.2267 2.12249C12.6183 1.71826 13.0609 1.55192 13.5792 1.58148C13.9334 1.60119 14.2043 1.43547 14.4367 1.18206L14.4415 1.17718C14.4668 1.14857 14.4928 1.11906 14.5226 1.09515C14.6149 1.01839 14.6845 0.866214 14.8429 0.945736C14.995 1.02249 15.0099 1.17427 14.9972 1.32074C14.9148 2.27918 14.562 3.07892 13.6896 3.56488C13.391 3.72878 13.0625 3.83162 12.7238 3.86761C12.6012 3.88029 12.5774 3.92251 12.5802 4.03167C12.5845 4.2105 12.6119 4.34965 12.5802 4.57074C12.1759 7.35304 11.1446 8.21173 10.4601 9.03851C10.7289 9.24887 10.4334 8.98873 11.7794 9.62933C11.9456 9.70891 11.9778 10.1433 11.5187 10.2426C11.2251 10.3046 10.8462 10.3619 10.4533 10.3246C9.94196 10.2796 9.63367 10.22 9.33999 10.0707C8.1766 11.0763 7.14497 11.203 6.21889 11.2573C4.69356 11.3495 3.35603 10.8704 2.19546 9.893C1.07573 8.94933 0.346339 7.74331 0.0948699 6.28558C-0.144582 4.9038 0.0519294 3.57826 0.882956 2.41058C1.57455 1.44009 2.51525 0.87154 3.6935 0.737728C4.29385 0.666327 4.9015 0.688339 5.49526 0.802181C5.59414 0.781085 5.69202 0.75183 5.78628 0.715267C6.42207 0.467431 6.92096 0.280856 7.46596 0.278743C8.01061 0.276752 8.12048 0.489218 7.95229 0.551204C7.79101 0.611068 7.09414 1.11247 7.71108 1.72308C7.85737 1.81804 8.00053 1.91836 8.13979 2.02386C8.74336 2.48023 9.22759 3.06401 9.76284 3.59222C10.0731 3.91038 10.4418 4.16561 10.8488 4.34417C10.9692 4.39418 11.02 4.36842 11.0539 4.25433C11.1073 4.0757 11.1692 3.90269 11.2199 3.72406C11.2473 3.63743 11.2247 3.57689 11.1388 3.51702C10.3869 2.99869 10.0083 2.26839 9.99135 1.35296C9.98364 0.945969 10.059 0.543608 10.254 0.178158C10.3033 0.0894354 10.3524 -0.0173301 10.4777 0.00237629ZM2.24721 4.05511C1.92959 4.01004 1.60597 4.01923 1.29116 4.0805C1.05184 4.12558 0.980633 4.21199 0.993307 4.45843C1.0405 5.4613 1.3178 6.4403 1.80385 7.31878C2.30523 8.24182 3.0168 8.91666 3.86733 9.42718C3.90114 9.44479 4.63243 9.80011 5.05288 9.5346C5.24361 9.41559 5.19458 9.25616 5.12417 9.14984C5.02138 8.98791 4.94807 8.86122 4.89174 8.67816C4.83823 8.49223 4.79388 8.20662 5.03823 8.19183C5.30035 8.17725 5.9338 8.52185 7.23842 9.56878L7.34878 9.64984C7.91367 10.029 8.67845 10.0139 9.14858 9.96038C8.98237 9.85615 8.80831 9.71467 8.58999 9.52874C7.97463 8.99778 7.4911 8.34983 7.04116 7.67035C6.61798 7.0296 6.2073 6.37488 5.66518 5.82562C4.71446 4.86292 3.57961 4.25375 2.24721 4.05511ZM8.63198 4.56781C8.39466 4.47134 8.13771 4.42944 7.91518 4.55902C7.8949 4.57377 7.8129 4.65775 7.79604 4.69281C7.78481 4.71221 7.77806 4.734 7.77553 4.75628C7.77305 4.7785 7.7748 4.80133 7.78139 4.82269C7.78801 4.84393 7.7991 4.86344 7.81362 4.88031C7.82826 4.89729 7.84614 4.91162 7.86635 4.92132C7.91453 4.95051 7.96929 4.96702 8.02553 4.97015C8.18892 4.97015 8.33858 4.9978 8.4562 5.0971C8.59964 5.21884 8.64889 5.35275 8.60464 5.56097C8.58042 5.68443 8.57718 5.81141 8.59487 5.93597C8.64628 6.19139 8.7686 6.27373 8.9396 6.41937C9.08165 6.53021 9.25855 6.58767 9.43862 6.58148C9.55825 6.57648 9.68321 6.53199 9.80776 6.47992C9.95183 6.41729 10.006 6.31625 9.96401 6.19183C9.89641 5.99326 9.79526 5.81981 9.68471 5.65081C9.54597 5.43461 9.50135 5.35584 9.25698 5.06781L9.2394 5.05023C9.00936 4.82078 8.84626 4.65709 8.63198 4.56781ZM8.05678 5.26507C7.94924 5.26531 7.8644 5.35235 7.8644 5.46136C7.86377 5.4867 7.86791 5.51196 7.8771 5.53558C7.88638 5.55935 7.90033 5.58173 7.91811 5.60003C7.93578 5.61819 7.95732 5.63208 7.98061 5.64202C8.00401 5.65196 8.02941 5.65753 8.05483 5.65765C8.08044 5.65756 8.10642 5.65198 8.13003 5.64202C8.15335 5.63212 8.17474 5.61809 8.19253 5.60003C8.21047 5.58176 8.225 5.55936 8.23452 5.53558C8.24389 5.51199 8.24853 5.48674 8.24819 5.46136C8.24867 5.42182 8.2371 5.38281 8.21499 5.35003C8.1927 5.31717 8.16026 5.29201 8.12319 5.27777C8.10349 5.2698 8.08117 5.26507 8.05678 5.26507Z" fill="white"/>
</g>
</svg>
