<svg width="14" height="14" viewBox="0 0 14 14" fill="none" xmlns="http://www.w3.org/2000/svg">
<path d="M8.02051 9.33398C8.34267 9.33398 8.60352 9.59483 8.60352 9.91699V11.0732C8.60357 11.0765 8.60449 11.0797 8.60449 11.083C8.60449 11.0858 8.60356 11.089 8.60352 11.0918V12.25C8.60332 12.572 8.34255 12.834 8.02051 12.834C7.69863 12.8338 7.4377 12.5719 7.4375 12.25V11.666H1.60449C1.28233 11.666 1.02148 11.4052 1.02148 11.083C1.02168 10.761 1.28245 10.5 1.60449 10.5H7.4375V9.91699C7.4375 9.59495 7.69851 9.33418 8.02051 9.33398ZM12.1045 10.5C12.4264 10.5002 12.6873 10.7611 12.6875 11.083C12.6875 11.4051 12.4265 11.6658 12.1045 11.666H10.3545C10.0323 11.666 9.77148 11.4052 9.77148 11.083C9.77168 10.761 10.0324 10.5 10.3545 10.5H12.1045ZM6.27051 5.25C6.59255 5.25 6.85332 5.51101 6.85352 5.83301V6.41699H12.6875C13.0095 6.41717 13.2705 6.67794 13.2705 7C13.2705 7.32206 13.0095 7.58283 12.6875 7.58301H6.85352V8.16602C6.85352 8.48818 6.59267 8.75 6.27051 8.75C5.94851 8.7498 5.6875 8.48806 5.6875 8.16602V5.83301C5.6877 5.51113 5.94863 5.2502 6.27051 5.25ZM3.9375 6.41699C4.2595 6.41719 4.52148 6.67796 4.52148 7C4.52148 7.32204 4.2595 7.58281 3.9375 7.58301H1.60449C1.28233 7.58301 1.02148 7.32217 1.02148 7C1.02148 6.67783 1.28233 6.41699 1.60449 6.41699H3.9375ZM8.02051 1.16699C8.34267 1.16699 8.60352 1.42783 8.60352 1.75V2.90723C8.60357 2.91036 8.60449 2.91385 8.60449 2.91699C8.60449 2.91993 8.60356 2.92285 8.60352 2.92578V4.08301C8.60352 4.40517 8.34267 4.66699 8.02051 4.66699C7.69851 4.66679 7.4375 4.40505 7.4375 4.08301V3.5H1.60449C1.28245 3.5 1.02168 3.23899 1.02148 2.91699C1.02148 2.59483 1.28233 2.33398 1.60449 2.33398H7.4375V1.75C7.4375 1.42796 7.69851 1.16719 8.02051 1.16699ZM12.1045 2.33398C12.4265 2.33418 12.6875 2.59495 12.6875 2.91699C12.6873 3.23887 12.4264 3.4998 12.1045 3.5H10.3545C10.0324 3.5 9.77168 3.23899 9.77148 2.91699C9.77148 2.59483 10.0323 2.33398 10.3545 2.33398H12.1045Z" fill="white"/>
</svg>
