<svg preserveAspectRatio="none" width="100%" height="100%" overflow="visible" style="display: block;" viewBox="0 0 13.1699 12.1699" fill="none" xmlns="http://www.w3.org/2000/svg">
<path id="Union" d="M10.585 0C12.0126 3.22138e-08 13.1699 1.1573 13.1699 2.58496V7.58496C13.1699 9.01262 12.0126 10.1699 10.585 10.1699H7.72656L3.9873 12.1045C3.80611 12.1981 3.58931 12.1909 3.41504 12.085C3.24062 11.9788 3.13379 11.7891 3.13379 11.585V10.1699H2.58496C1.1573 10.1699 0 9.01262 0 7.58496V2.58496C8.05345e-09 1.1573 1.15731 1.28853e-07 2.58496 0H10.585ZM2.58496 1.16992C1.80348 1.16992 1.16992 1.80348 1.16992 2.58496V7.58496C1.16992 8.36644 1.80348 9 2.58496 9H4.30371V10.623L7.31641 9.06543L7.44238 9H10.585C11.3664 9 12 8.36644 12 7.58496V2.58496C12 1.80348 11.3664 1.16992 10.585 1.16992H2.58496ZM6.68066 2.11426C7.00357 2.11475 7.26487 2.37732 7.26465 2.7002L7.2627 4.5H9.05469C9.37763 4.50003 9.63945 4.76206 9.63965 5.08496C9.63945 5.40786 9.37763 5.66989 9.05469 5.66992H7.26074L7.25879 7.4707C7.25834 7.79372 6.99586 8.05504 6.67285 8.05469C6.39033 8.05404 6.15466 7.85349 6.10059 7.58691L6.08887 7.46973L6.09082 5.66992H4.28418C3.96138 5.66972 3.69942 5.40776 3.69922 5.08496C3.69942 4.76216 3.96138 4.5002 4.28418 4.5H6.09277L6.09473 2.69824C6.09546 2.3756 6.35801 2.11412 6.68066 2.11426Z" fill="white"/>
</svg>
