<svg width="13" height="13" viewBox="0 0 13 13" fill="none" xmlns="http://www.w3.org/2000/svg">
<path d="M8.12524 11.1426C8.42422 11.1428 8.66626 11.3855 8.66626 11.6846C8.66605 11.9834 8.42409 12.2254 8.12524 12.2256H4.87524C4.57622 12.2256 4.33347 11.9835 4.33325 11.6846C4.33325 11.3854 4.57609 11.1426 4.87524 11.1426H8.12524ZM6.50024 0.541016C8.89333 0.541184 10.8333 2.48187 10.8333 4.875C10.8331 6.47868 9.96123 7.8777 8.66626 8.62695V9.47852C8.66626 9.92725 8.30249 10.291 7.85376 10.291H5.14575C4.69702 10.291 4.33325 9.92725 4.33325 9.47852V8.62598C3.03866 7.87663 2.16637 6.47839 2.16626 4.875C2.16626 2.48177 4.10701 0.541016 6.50024 0.541016Z" fill="white"/>
</svg>
